<svg width="90" height="58" viewBox="0 0 90 58" fill="none" xmlns="http://www.w3.org/2000/svg">
<path d="M72.75 24.8438L88.0625 38.5312C88.4792 38.9062 88.8021 39.3542 89.0312 39.875C89.2812 40.3958 89.4062 40.9479 89.4062 41.5312C89.4062 42.1354 89.2812 42.7083 89.0312 43.25C88.7812 43.7708 88.4375 44.2188 88 44.5938L72.875 57.8438H61.1875L79.8125 41.5312L61.1875 24.8438H72.75Z" fill="#00FF75"/>
<path d="M17.25 33.1562L1.9375 19.4687C1.52083 19.0937 1.19792 18.6458 0.968751 18.125C0.718751 17.6042 0.593751 17.0521 0.593752 16.4687C0.593752 15.8646 0.718752 15.2917 0.968752 14.75C1.21875 14.2292 1.5625 13.7812 2 13.4062L17.125 0.156249L28.8125 0.15625L10.1875 16.4687L28.8125 33.1562L17.25 33.1562Z" fill="#00FF75"/>
<path d="M48.8752 18.2681H38.803V38.9048H34.2327V18.2681H24.1428V13.6978H48.8752V18.2681Z" fill="white"/>
<path d="M65.1575 42.4888C65.1575 42.9224 65.1047 43.3794 64.9993 43.8599C64.9055 44.3403 64.7532 44.8208 64.5422 45.3013C64.3313 45.77 64.0559 46.2212 63.7161 46.6548C63.3879 47.0884 62.9836 47.4751 62.5032 47.8149C62.0344 48.1431 61.4895 48.4067 60.8684 48.606C60.2473 48.8052 59.5442 48.9048 58.759 48.9048H50.5149C50.0813 48.9048 49.6243 48.8579 49.1438 48.7642C48.6633 48.6587 48.1829 48.5005 47.7024 48.2896C47.2336 48.0786 46.7825 47.8091 46.3489 47.481C45.9153 47.1411 45.5286 46.7368 45.1887 46.2681C44.8606 45.7876 44.5969 45.2368 44.3977 44.6157C44.1985 43.9829 44.0989 43.2739 44.0989 42.4888V21.8696H48.6692V42.4888C48.6692 43.0513 48.845 43.5024 49.1965 43.8423C49.5481 44.1704 49.9875 44.3345 50.5149 44.3345H58.759C59.3333 44.3345 59.7786 44.1646 60.095 43.8247C60.4231 43.4849 60.5872 43.0396 60.5872 42.4888V36.3013C60.5872 35.7271 60.4172 35.2817 60.0774 34.9653C59.7375 34.6372 59.2981 34.4731 58.759 34.4731H50.5149V29.9028H58.759C59.1926 29.9028 59.6497 29.9556 60.1301 30.061C60.6106 30.1548 61.0852 30.3071 61.554 30.5181C62.0344 30.729 62.4915 31.0044 62.925 31.3442C63.3586 31.6724 63.7395 32.0767 64.0676 32.5571C64.3958 33.0259 64.6594 33.5708 64.8586 34.1919C65.0579 34.813 65.1575 35.5161 65.1575 36.3013V42.4888Z" fill="white"/>
</svg>
