<svg width="297" height="58" viewBox="0 0 297 58" fill="none" xmlns="http://www.w3.org/2000/svg">
<path d="M146.308 13.0327H135.098V36H130.012V13.0327H118.782V7.94626H146.308V13.0327ZM155.791 19.4103H173.652V7.94626H178.738V36H173.652V24.5359H155.791V36H150.704V7.94626H155.791V19.4103ZM190.432 36H185.345V7.94626H190.432V36ZM224.505 36H219.419V29.1137H201.538V36H196.452V21.9731C196.452 19.9255 196.804 18.0409 197.508 16.3193C198.212 14.5978 199.19 13.1175 200.443 11.8785C201.695 10.6395 203.175 9.67435 204.883 8.98312C206.592 8.29188 208.457 7.94626 210.478 7.94626H221.943C222.295 7.94626 222.627 8.01148 222.94 8.1419C223.253 8.27232 223.527 8.45491 223.762 8.68967C223.997 8.92443 224.179 9.19831 224.31 9.51133C224.44 9.82434 224.505 10.1569 224.505 10.5091V36ZM201.538 24.0273H219.419V13.0327H210.478C210.322 13.0327 209.989 13.0588 209.481 13.111C208.985 13.1501 208.405 13.261 207.74 13.4435C207.088 13.6261 206.396 13.9065 205.666 14.2848C204.936 14.663 204.264 15.1847 203.651 15.8498C203.038 16.515 202.529 17.3497 202.125 18.3539C201.734 19.3451 201.538 20.5515 201.538 21.9731V24.0273ZM258.716 33.4372C258.716 33.8024 258.651 34.1415 258.52 34.4545C258.39 34.7675 258.207 35.0414 257.973 35.2762C257.751 35.4979 257.484 35.6739 257.171 35.8044C256.858 35.9348 256.518 36 256.153 36H237.803C237.333 36 236.825 35.9478 236.277 35.8435C235.742 35.7261 235.208 35.55 234.673 35.3153C234.151 35.0805 233.649 34.7806 233.166 34.4154C232.684 34.0372 232.253 33.5872 231.875 33.0655C231.51 32.5308 231.217 31.9178 230.995 31.2266C230.773 30.5223 230.662 29.7332 230.662 28.8594V15.0869C230.662 14.6173 230.714 14.1152 230.819 13.5805C230.936 13.0327 231.112 12.498 231.347 11.9763C231.582 11.4416 231.888 10.9329 232.266 10.4504C232.645 9.9678 233.095 9.54393 233.616 9.17875C234.151 8.80053 234.764 8.50056 235.455 8.27884C236.147 8.05712 236.929 7.94626 237.803 7.94626H258.481V13.0327H237.803C237.138 13.0327 236.629 13.2088 236.277 13.5609C235.925 13.9131 235.749 14.4348 235.749 15.126V28.8594C235.749 29.5115 235.925 30.0202 236.277 30.3853C236.642 30.7375 237.151 30.9135 237.803 30.9135H253.63V24.5359H240.092V19.4103H256.153C256.518 19.4103 256.858 19.4821 257.171 19.6255C257.484 19.756 257.751 19.9386 257.973 20.1733C258.207 20.4081 258.39 20.682 258.52 20.995C258.651 21.2949 258.716 21.621 258.716 21.9731V33.4372ZM294.061 24.6533C294.061 26.3618 293.768 27.9334 293.181 29.368C292.594 30.8027 291.779 32.0417 290.736 33.0851C289.692 34.1284 288.453 34.9436 287.019 35.5305C285.597 36.1043 284.045 36.3913 282.363 36.3913H275.476C273.794 36.3913 272.235 36.1043 270.801 35.5305C269.366 34.9436 268.127 34.1284 267.084 33.0851C266.04 32.0417 265.219 30.8027 264.619 29.368C264.032 27.9334 263.738 26.3618 263.738 24.6533V19.293C263.738 17.5975 264.032 16.0324 264.619 14.5978C265.219 13.1501 266.04 11.9111 267.084 10.8808C268.127 9.83738 269.366 9.02224 270.801 8.43535C272.235 7.84845 273.794 7.555 275.476 7.555H282.363C284.045 7.555 285.597 7.84845 287.019 8.43535C288.453 9.02224 289.692 9.83738 290.736 10.8808C291.779 11.9111 292.594 13.1501 293.181 14.5978C293.768 16.0324 294.061 17.5975 294.061 19.293V24.6533ZM288.975 19.293C288.975 18.2887 288.812 17.3823 288.486 16.5737C288.173 15.752 287.723 15.0543 287.136 14.4804C286.562 13.8935 285.864 13.4435 285.043 13.1305C284.234 12.8045 283.341 12.6415 282.363 12.6415H275.476C274.485 12.6415 273.579 12.8045 272.757 13.1305C271.948 13.4435 271.251 13.8935 270.664 14.4804C270.077 15.0543 269.62 15.752 269.294 16.5737C268.981 17.3823 268.825 18.2887 268.825 19.293V24.6533C268.825 25.6575 268.981 26.5705 269.294 27.3922C269.62 28.2008 270.077 28.8985 270.664 29.4854C271.251 30.0593 271.948 30.5092 272.757 30.8353C273.579 31.1483 274.485 31.3048 275.476 31.3048H282.323C283.315 31.3048 284.215 31.1483 285.023 30.8353C285.845 30.5092 286.549 30.0593 287.136 29.4854C287.723 28.8985 288.173 28.2008 288.486 27.3922C288.812 26.5705 288.975 25.6575 288.975 24.6533V19.293Z" fill="white"/>
<g filter="url(#filter0_d_1_133)">
<path d="M199.539 47.3086C199.539 47.6836 199.472 48.0859 199.34 48.5156C199.215 48.9453 199.004 49.3438 198.707 49.7109C198.418 50.0781 198.039 50.3867 197.57 50.6367C197.101 50.8789 196.527 51 195.847 51H184.281C184.062 51 183.859 50.9609 183.672 50.8828C183.484 50.8047 183.32 50.6992 183.179 50.5664C183.047 50.4258 182.941 50.2617 182.863 50.0742C182.785 49.8867 182.746 49.6836 182.746 49.4648V35.7305C182.746 35.5195 182.785 35.3203 182.863 35.1328C182.941 34.9453 183.047 34.7812 183.179 34.6406C183.32 34.5 183.484 34.3906 183.672 34.3125C183.859 34.2344 184.062 34.1953 184.281 34.1953H194.476C194.851 34.1953 195.254 34.2617 195.683 34.3945C196.113 34.5273 196.511 34.7422 196.879 35.0391C197.254 35.3281 197.562 35.707 197.804 36.1758C198.054 36.6445 198.179 37.2188 198.179 37.8984V38.4727C198.179 39.0117 198.09 39.5938 197.91 40.2188C197.73 40.8359 197.441 41.4219 197.043 41.9766C197.386 42.1875 197.707 42.4414 198.004 42.7383C198.308 43.0352 198.574 43.3789 198.801 43.7695C199.027 44.1602 199.207 44.6016 199.34 45.0938C199.472 45.5859 199.539 46.1289 199.539 46.7227V47.3086ZM196.492 46.7227C196.492 46.3242 196.429 45.9688 196.304 45.6562C196.179 45.3359 196.004 45.0625 195.777 44.8359C195.551 44.6094 195.277 44.4375 194.957 44.3203C194.636 44.1953 194.277 44.1328 193.879 44.1328H187.011V41.0625H192.508C192.906 41.0625 193.265 41.0039 193.586 40.8867C193.906 40.7617 194.179 40.5859 194.406 40.3594C194.633 40.1328 194.804 39.8633 194.922 39.5508C195.047 39.2305 195.109 38.8711 195.109 38.4727V37.8984C195.109 37.4609 194.898 37.2422 194.476 37.2422H185.793V47.9531H195.847C195.902 47.9531 195.969 47.9492 196.047 47.9414C196.125 47.9336 196.195 47.9102 196.258 47.8711C196.32 47.832 196.375 47.7656 196.422 47.6719C196.469 47.5781 196.492 47.4492 196.492 47.2852V46.7227ZM219.352 39.8438C219.352 40.5391 219.266 41.1602 219.094 41.707C218.922 42.2539 218.688 42.7383 218.391 43.1602C218.102 43.5742 217.766 43.9297 217.383 44.2266C217 44.5234 216.598 44.7695 216.176 44.9648C215.762 45.1523 215.34 45.2891 214.911 45.375C214.489 45.4609 214.09 45.5039 213.715 45.5039L220.079 51H215.368L209.016 45.5039H206.825V42.457H213.715C214.098 42.4258 214.446 42.3477 214.758 42.2227C215.079 42.0898 215.352 41.9141 215.579 41.6953C215.813 41.4766 215.993 41.2148 216.118 40.9102C216.243 40.5977 216.305 40.2422 216.305 39.8438V37.9219C216.305 37.75 216.282 37.6211 216.235 37.5352C216.196 37.4414 216.141 37.375 216.071 37.3359C216.008 37.2891 215.938 37.2617 215.86 37.2539C215.789 37.2461 215.723 37.2422 215.661 37.2422H205.606V51H202.559V35.7305C202.559 35.5195 202.598 35.3203 202.676 35.1328C202.754 34.9453 202.86 34.7812 202.993 34.6406C203.133 34.5 203.297 34.3906 203.485 34.3125C203.672 34.2344 203.875 34.1953 204.094 34.1953H215.661C216.34 34.1953 216.914 34.3203 217.383 34.5703C217.852 34.8125 218.231 35.1211 218.52 35.4961C218.817 35.8633 219.028 36.2617 219.153 36.6914C219.286 37.1211 219.352 37.5234 219.352 37.8984V39.8438ZM240.407 44.2031C240.407 45.2266 240.231 46.168 239.88 47.0273C239.528 47.8867 239.04 48.6289 238.415 49.2539C237.79 49.8789 237.048 50.3672 236.189 50.7188C235.337 51.0625 234.407 51.2344 233.399 51.2344H229.274C228.267 51.2344 227.333 51.0625 226.474 50.7188C225.614 50.3672 224.872 49.8789 224.247 49.2539C223.622 48.6289 223.13 47.8867 222.771 47.0273C222.419 46.168 222.243 45.2266 222.243 44.2031V40.9922C222.243 39.9766 222.419 39.0391 222.771 38.1797C223.13 37.3125 223.622 36.5703 224.247 35.9531C224.872 35.3281 225.614 34.8398 226.474 34.4883C227.333 34.1367 228.267 33.9609 229.274 33.9609H233.399C234.407 33.9609 235.337 34.1367 236.189 34.4883C237.048 34.8398 237.79 35.3281 238.415 35.9531C239.04 36.5703 239.528 37.3125 239.88 38.1797C240.231 39.0391 240.407 39.9766 240.407 40.9922V44.2031ZM237.36 40.9922C237.36 40.3906 237.263 39.8477 237.067 39.3633C236.88 38.8711 236.61 38.4531 236.259 38.1094C235.915 37.7578 235.497 37.4883 235.005 37.3008C234.521 37.1055 233.985 37.0078 233.399 37.0078H229.274C228.681 37.0078 228.138 37.1055 227.646 37.3008C227.161 37.4883 226.743 37.7578 226.392 38.1094C226.04 38.4531 225.767 38.8711 225.571 39.3633C225.384 39.8477 225.29 40.3906 225.29 40.9922V44.2031C225.29 44.8047 225.384 45.3516 225.571 45.8438C225.767 46.3281 226.04 46.7461 226.392 47.0977C226.743 47.4414 227.161 47.7109 227.646 47.9062C228.138 48.0938 228.681 48.1875 229.274 48.1875H233.376C233.97 48.1875 234.509 48.0938 234.993 47.9062C235.485 47.7109 235.907 47.4414 236.259 47.0977C236.61 46.7461 236.88 46.3281 237.067 45.8438C237.263 45.3516 237.36 44.8047 237.36 44.2031V40.9922ZM259.213 51H245.314C245.095 51 244.892 50.9609 244.705 50.8828C244.517 50.8047 244.353 50.6992 244.213 50.5664C244.08 50.4258 243.974 50.2617 243.896 50.0742C243.818 49.8867 243.779 49.6836 243.779 49.4648V34.1953H246.826V47.9531H259.213V51ZM277.244 51H263.346C263.127 51 262.924 50.9609 262.737 50.8828C262.549 50.8047 262.385 50.6992 262.244 50.5664C262.112 50.4258 262.006 50.2617 261.928 50.0742C261.85 49.8867 261.811 49.6836 261.811 49.4648V34.1953H264.858V47.9531H277.244V51ZM294.116 39.8203C294.116 40.5156 294.026 41.1367 293.847 41.6836C293.675 42.2305 293.444 42.7148 293.155 43.1367C292.866 43.5508 292.526 43.9062 292.136 44.2031C291.753 44.5 291.354 44.7461 290.94 44.9414C290.526 45.1289 290.104 45.2656 289.675 45.3516C289.253 45.4375 288.854 45.4805 288.479 45.4805H287.249V51H284.179V45.4805H282.96C282.585 45.4805 282.183 45.4375 281.753 45.3516C281.331 45.2656 280.909 45.1289 280.487 44.9414C280.073 44.7461 279.675 44.5 279.292 44.2031C278.909 43.9062 278.569 43.5508 278.272 43.1367C277.983 42.7148 277.749 42.2305 277.569 41.6836C277.397 41.1289 277.311 40.5078 277.311 39.8203V34.1953H280.358V39.8203C280.358 40.2188 280.421 40.5781 280.546 40.8984C280.671 41.2109 280.847 41.4805 281.073 41.707C281.3 41.9336 281.573 42.1094 281.894 42.2344C282.222 42.3516 282.585 42.4102 282.983 42.4102H288.479C288.769 42.3633 289.065 42.3047 289.37 42.2344C289.675 42.1562 289.952 42.0273 290.202 41.8477C290.452 41.668 290.659 41.418 290.823 41.0977C290.987 40.7773 291.069 40.3516 291.069 39.8203V34.1953H294.116V39.8203Z" fill="#00FF75"/>
</g>
<path d="M72.75 24.8438L88.0625 38.5312C88.4792 38.9062 88.8021 39.3542 89.0312 39.875C89.2812 40.3958 89.4062 40.9479 89.4062 41.5312C89.4062 42.1354 89.2812 42.7083 89.0312 43.25C88.7812 43.7708 88.4375 44.2188 88 44.5938L72.875 57.8438H61.1875L79.8125 41.5312L61.1875 24.8438H72.75Z" fill="#00FF75"/>
<path d="M17.25 33.1562L1.9375 19.4687C1.52083 19.0937 1.19792 18.6458 0.968751 18.125C0.718751 17.6042 0.593751 17.0521 0.593752 16.4687C0.593752 15.8646 0.718752 15.2917 0.968752 14.75C1.21875 14.2292 1.5625 13.7812 2 13.4062L17.125 0.156249L28.8125 0.15625L10.1875 16.4687L28.8125 33.1562L17.25 33.1562Z" fill="#00FF75"/>
<path d="M48.8752 18.2681H38.803V38.9048H34.2327V18.2681H24.1428V13.6978H48.8752V18.2681Z" fill="white"/>
<path d="M65.1575 42.4888C65.1575 42.9224 65.1047 43.3794 64.9993 43.8599C64.9055 44.3403 64.7532 44.8208 64.5422 45.3013C64.3313 45.77 64.0559 46.2212 63.7161 46.6548C63.3879 47.0884 62.9836 47.4751 62.5032 47.8149C62.0344 48.1431 61.4895 48.4067 60.8684 48.606C60.2473 48.8052 59.5442 48.9048 58.759 48.9048H50.5149C50.0813 48.9048 49.6243 48.8579 49.1438 48.7642C48.6633 48.6587 48.1829 48.5005 47.7024 48.2896C47.2336 48.0786 46.7825 47.8091 46.3489 47.481C45.9153 47.1411 45.5286 46.7368 45.1887 46.2681C44.8606 45.7876 44.5969 45.2368 44.3977 44.6157C44.1985 43.9829 44.0989 43.2739 44.0989 42.4888V21.8696H48.6692V42.4888C48.6692 43.0513 48.845 43.5024 49.1965 43.8423C49.5481 44.1704 49.9875 44.3345 50.5149 44.3345H58.759C59.3333 44.3345 59.7786 44.1646 60.095 43.8247C60.4231 43.4849 60.5872 43.0396 60.5872 42.4888V36.3013C60.5872 35.7271 60.4172 35.2817 60.0774 34.9653C59.7375 34.6372 59.2981 34.4731 58.759 34.4731H50.5149V29.9028H58.759C59.1926 29.9028 59.6497 29.9556 60.1301 30.061C60.6106 30.1548 61.0852 30.3071 61.554 30.5181C62.0344 30.729 62.4915 31.0044 62.925 31.3442C63.3586 31.6724 63.7395 32.0767 64.0676 32.5571C64.3958 33.0259 64.6594 33.5708 64.8586 34.1919C65.0579 34.813 65.1575 35.5161 65.1575 36.3013V42.4888Z" fill="white"/>
<defs>
<filter id="filter0_d_1_133" x="180.718" y="31.4259" width="115.426" height="21.3295" filterUnits="userSpaceOnUse" color-interpolation-filters="sRGB">
<feFlood flood-opacity="0" result="BackgroundImageFix"/>
<feColorMatrix in="SourceAlpha" type="matrix" values="0 0 0 0 0 0 0 0 0 0 0 0 0 0 0 0 0 0 127 0" result="hardAlpha"/>
<feOffset dy="-0.507003"/>
<feGaussianBlur stdDeviation="1.01401"/>
<feColorMatrix type="matrix" values="0 0 0 0 0 0 0 0 0 0 0 0 0 0 0 0 0 0 0.35 0"/>
<feBlend mode="normal" in2="BackgroundImageFix" result="effect1_dropShadow_1_133"/>
<feBlend mode="normal" in="SourceGraphic" in2="effect1_dropShadow_1_133" result="shape"/>
</filter>
</defs>
</svg>
